# xmcd
#
# Track frame offsets:
#	150
#	11143
#	24027
#	34374
#	45424
#	53950
#	63039
#	72476
#	84266
#	93396
#	103065
#	114164
#	129299
#	138922
#	152633
#	164019
#	176265
#	187777
#	198614
#	207557
#	220500
#	230380
#	240759
#	252849
#
# Disc length: 3544 seconds
#
# Revision: 1
# Processed by: cddbd v1.5.2PL0 Copyright (c) Steve Scherf et al.
# Submitted via: audiograbber 1.83.01
#
DISCID=330dd618
DTITLE=Dick Damron - Lost In The Music [CD 1/3)
DYEAR=2012
DGENRE=Country
TTITLE0=The Minstrel
TTITLE1=Whiskey Jack
TTITLE2=My Good Woman (That Ain't Right)
TTITLE3=It Ain't Easy Goin' Home
TTITLE4=When Satan Spins The Bottle
TTITLE5=Lost In The Music
TTITLE6=California Friends
TTITLE7=The Only Way To Say Goodbye
TTITLE8=Woman
TTITLE9=Sweet Lady
TTITLE10=Dollars
TTITLE11=We've Almost Got It All
TTITLE12=All Night Country Party
TTITLE13=If London Were A Lady
TTITLE14=The Ballad Of T. J.'s
TTITLE15=High On You
TTITLE16=Silver And Shine
TTITLE17=Sweet September
TTITLE18=Better Think It Over
TTITLE19=Slightly Out Of Tune
TTITLE20=Mid-Nite Flytes
TTITLE21=Countryfied
TTITLE22=Soldier Of Fortune (+Chorus)
TTITLE23=Waylon's T-Shirt (w/o percussion)
EXTD=
EXTT0=
EXTT1=
EXTT2=
EXTT3=
EXTT4=
EXTT5=
EXTT6=
EXTT7=
EXTT8=
EXTT9=
EXTT10=
EXTT11=
EXTT12=
EXTT13=
EXTT14=
EXTT15=
EXTT16=
EXTT17=
EXTT18=
EXTT19=
EXTT20=
EXTT21=
EXTT22=
EXTT23=
PLAYORDER=
